HIERARCHY
ROOT Hips
{
  OFFSET 49.7469 96.0681 5.74137
  CHANNELS 6 Xposition Yposition Zposition Zrotation Xrotation Yrotation
  JOINT spine
  {
    OFFSET 0 8.13249 0.467659
    CHANNELS 3 Zrotation Xrotation Yrotation
    JOINT spine1
    {
      OFFSET 0 10.3498 0
      CHANNELS 3 Zrotation Xrotation Yrotation
      JOINT spine2
      {
        OFFSET 0 9.91699 0
        CHANNELS 3 Zrotation Xrotation Yrotation
        JOINT Neck
        {
          OFFSET 0 25.461 1.2139
          CHANNELS 3 Zrotation Xrotation Yrotation
          JOINT Head
          {
            OFFSET 0 7.69245 0
            CHANNELS 3 Zrotation Xrotation Yrotation
            End Site
            {
              OFFSET 0 18.62 -6.14063
            }
          }
        }
        JOINT RightShoulder
        {
          OFFSET -4.17575 10.7096 -0.581445
          CHANNELS 3 Zrotation Xrotation Yrotation
          JOINT RightArm
          {
            OFFSET 0 14.0466 0
            CHANNELS 3 Zrotation Xrotation Yrotation
            JOINT RightArmRoll
            {
              OFFSET 0 7.09098 0
              CHANNELS 3 Zrotation Xrotation Yrotation
              JOINT RightForeArm
              {
                OFFSET 0 20.6535 0
                CHANNELS 3 Zrotation Xrotation Yrotation
                JOINT RightForeArmRoll
                {
                  OFFSET 0 7.95718 0
                  CHANNELS 3 Zrotation Xrotation Yrotation
                  JOINT RightHand
                  {
                    OFFSET 0 15.9683 0
                    CHANNELS 3 Zrotation Xrotation Yrotation
                    End Site
                    {
                      OFFSET 0 0 0
                    }
                  }
                }
              }
            }
          }
        }
        JOINT LeftShoulder
        {
          OFFSET 4.17575 10.7096 -0.581445
          CHANNELS 3 Zrotation Xrotation Yrotation
          JOINT LeftArm
          {
            OFFSET 0 14.0466 0
            CHANNELS 3 Zrotation Xrotation Yrotation
            JOINT LeftArmRoll
            {
              OFFSET 0 7.09098 0
              CHANNELS 3 Zrotation Xrotation Yrotation
              JOINT LeftForeArm
              {
                OFFSET 0 20.6535 0
                CHANNELS 3 Zrotation Xrotation Yrotation
                JOINT LeftForeArmRoll
                {
                  OFFSET 0 7.95718 0
                  CHANNELS 3 Zrotation Xrotation Yrotation
                  JOINT LeftHand
                  {
                    OFFSET 0 15.9683 0
                    CHANNELS 3 Zrotation Xrotation Yrotation
                    End Site
                    {
                      OFFSET 0 0 0
                    }
                  }
                }
              }
            }
          }
        }
      }
    }
  }
  JOINT RightUpLeg
  {
    OFFSET -7.20834 -1.32182 -1.10884
    CHANNELS 3 Zrotation Xrotation Yrotation
    JOINT RightUpLegRoll
    {
      OFFSET 0 18.7238 0
      CHANNELS 3 Zrotation Xrotation Yrotation
      JOINT RightLeg
      {
        OFFSET 0 -23.1866 0
        CHANNELS 3 Zrotation Xrotation Yrotation
        JOINT RightLegRoll
        {
          OFFSET 0 23.2624 0
          CHANNELS 3 Zrotation Xrotation Yrotation
          JOINT RightFoot
          {
            OFFSET 0 19.3621 0
            CHANNELS 3 Zrotation Xrotation Yrotation
            JOINT RightToeBase
            {
              OFFSET 0 16.1857 0
              CHANNELS 3 Zrotation Xrotation Yrotation
              End Site
              {
                OFFSET 0.00686052 7.83863 -0.903522
              }
            }
          }
        }
      }
    }
  }
  JOINT LeftUpLeg
  {
    OFFSET 7.20834 -1.32182 -1.10884
    CHANNELS 3 Zrotation Xrotation Yrotation
    JOINT LeftUpLegRoll
    {
      OFFSET 0 18.7239 0
      CHANNELS 3 Zrotation Xrotation Yrotation
      JOINT LeftLeg
      {
        OFFSET 0 23.1865 0
        CHANNELS 3 Zrotation Xrotation Yrotation
        JOINT LeftLegRoll
        {
          OFFSET 0 23.4775 0
          CHANNELS 3 Zrotation Xrotation Yrotation
          JOINT LeftFoot
          {
            OFFSET 0 19.147 0
            CHANNELS 3 Zrotation Xrotation Yrotation
            JOINT LeftToeBase
            {
              OFFSET 0 16.1857 0
              CHANNELS 3 Zrotation Xrotation Yrotation
              End Site
              {
                OFFSET -0.0307459 7.83863 -0.903522
              }
            }
          }
        }
      }
    }
  }
}
MOTION
Frames: 7
Frame Time: 0.00208333
54.2402 96.0714 9.59984 -0.348317 -2.69805 -0.509186 0.416934 -0.547396 0.0489499 0.81273 2.91858 0.0411702 0.813006 4.56356 0.0277635 -2.56198 14.9351 -3.10542 1.63508 -1.33807 -3.66578 59.7753 -7.95679 -4.96644 114.342 20.0132 16.6241 -4.34044e-006 6.11064e-006 1.97868e-006 7.78412 0.0539184 -0.885673 -8.69122e-007 -1.265e-007 -3.05937 8.02917 -4.95143 0.697667 -60.9083 -6.17327 3.9308 -112.158 19.1249 -5.24566 -8.38822e-006 -1.19584e-006 2.89692e-006 -9.65087 0.0696167 1.03505 -1.67715e-006 3.1641e-006 3.04051 -8.02896 -4.95148 -0.697666 173.394 4.45584 3.45306 -180 7.01568e-015 179.019 178.534 12.9805 179.634 -7.77421e-007 -2.57607e-006 0.13834 -18.1744 68.9319 20.3298 8.12479 25.2352 -3.48023 -174.614 1.36651 -0.524016 4.54188e-006 -4.6773e-006 -0.957743 -0.76915 -12.6366 0.49126 -2.54714e-006 2.19838e-006 -0.197274 19.7475 71.6966 -22.9626 -8.13353 25.2328 3.48647 
54.234 96.08 9.60354 -0.346952 -2.67165 -0.5065 0.417045 -0.547773 0.0483432 0.814193 2.91706 0.0413139 0.814483 4.56205 0.0278684 -2.55856 14.9521 -3.10657 1.63191 -1.36974 -3.66609 59.7652 -7.96172 -4.96922 114.347 20.0133 16.6343 -4.34044e-006 6.11064e-006 1.97868e-006 7.77488 0.0539196 -0.885075 -8.69122e-007 -1.265e-007 -3.05937 8.02917 -4.95143 0.697667 -60.9075 -6.16798 3.92764 -112.173 19.1164 -5.25756 -8.38822e-006 -1.19584e-006 2.89692e-006 -9.6455 0.0696178 1.03733 -1.67715e-006 3.1641e-006 3.04077 -8.02896 -4.95148 -0.697666 173.395 4.48414 3.44963 -180 7.01568e-015 179.02 178.536 12.9856 179.634 -7.77421e-007 -2.57607e-006 0.138333 -18.1739 68.9336 20.3296 8.12479 25.2352 -3.48023 -174.615 1.39556 -0.520969 4.54188e-006 -4.6773e-006 -0.957753 -0.769735 -12.641 0.491082 -2.54714e-006 2.19838e-006 -0.197249 19.7504 71.6987 -22.965 -8.13353 25.2328 3.48647 
54.2332 96.0788 9.60502 -0.345563 -2.64546 -0.503792 0.417124 -0.548136 0.0477231 0.815643 2.91555 0.041484 0.815948 4.56053 0.0279995 -2.55514 14.9697 -3.10767 1.62874 -1.40198 -3.66636 59.7549 -7.96652 -4.97192 114.352 20.0133 16.6449 -4.34044e-006 6.11064e-006 1.97868e-006 7.76549 0.0539208 -0.884472 -8.69122e-007 -1.265e-007 -3.05937 8.02917 -4.95143 0.697667 -60.907 -6.16256 3.92442 -112.187 19.1078 -5.26973 -8.38822e-006 -1.19584e-006 2.89692e-006 -9.64004 0.0696189 1.0396 -1.67715e-006 3.1641e-006 3.04103 -8.02896 -4.95148 -0.697666 173.395 4.51221 3.44639 -180 7.01568e-015 179.02 178.537 12.9908 179.634 -7.77421e-007 -2.57607e-006 0.138322 -18.1734 68.9354 20.3294 8.12479 25.2352 -3.48023 -174.617 1.42418 -0.518054 4.54188e-006 -4.6773e-006 -0.957773 -0.770476 -12.6453 0.490877 -2.54714e-006 2.19838e-006 -0.197212 19.7532 71.7008 -22.9673 -8.13353 25.2328 3.48647 
54.2358 96.0682 9.60512 -0.344158 -2.61943 -0.501068 0.417182 -0.548491 0.0470938 0.817084 2.91403 0.0416725 0.817405 4.55902 0.0281488 -2.55171 14.9878 -3.10874 1.62559 -1.43463 -3.66659 59.7447 -7.97123 -4.97457 114.356 20.0133 16.6558 -4.34044e-006 6.11064e-006 1.97868e-006 7.756 0.053922 -0.883864 -8.69122e-007 -1.265e-007 -3.05937 8.02917 -4.95143 0.697667 -60.9066 -6.15704 3.92115 -112.201 19.0992 -5.2821 -8.38822e-006 -1.19584e-006 2.89692e-006 -9.63452 0.0696201 1.04187 -1.67715e-006 3.1641e-006 3.04128 -8.02896 -4.95148 -0.697666 173.395 4.54011 3.44328 -180 7.01568e-015 179.021 178.538 12.996 179.634 -7.77421e-007 -2.57607e-006 0.138308 -18.1728 68.9373 20.3292 8.12479 25.2352 -3.48023 -174.618 1.4525 -0.515232 4.54188e-006 -4.6773e-006 -0.9578 -0.771326 -12.6493 0.490652 -2.54714e-006 2.19838e-006 -0.197167 19.7559 71.7028 -22.9697 -8.13353 25.2328 3.48647 
54.2277 96.0722 9.60727 -0.342745 -2.59349 -0.498335 0.417227 -0.54884 0.0464591 0.818519 2.91251 0.0418716 0.818856 4.5575 0.0283086 -2.54827 15.0062 -3.10979 1.62244 -1.4675 -3.66681 59.7344 -7.97589 -4.97719 114.361 20.0132 16.6668 -4.34044e-006 6.11064e-006 1.97868e-006 7.74645 0.0539233 -0.883254 -8.69122e-007 -1.265e-007 -3.05937 8.02917 -4.95143 0.697667 -60.9063 -6.15146 3.91785 -112.215 19.0905 -5.29458 -8.38821e-006 -1.19584e-006 2.89692e-006 -9.62896 0.0696212 1.04414 -1.67715e-006 3.1641e-006 3.04154 -8.02896 -4.95148 -0.697666 173.396 4.56792 3.44024 -180 7.01569e-015 179.021 178.539 13.0012 179.634 -7.77421e-007 -2.57607e-006 0.138293 -18.1721 68.9392 20.329 8.12479 25.2352 -3.48023 -174.619 1.48066 -0.512462 4.54188e-006 -4.6773e-006 -0.957831 -0.772239 -12.6534 0.490416 -2.54714e-006 2.19838e-006 -0.197116 19.7585 71.7049 -22.9721 -8.13353 25.2328 3.48647 
54.2296 96.0668 9.60757 -0.341333 -2.56757 -0.4956 0.41727 -0.549189 0.0458232 0.819954 2.911 0.0420733 0.820306 4.55598 0.028471 -2.54484 15.0247 -3.11084 1.61929 -1.50044 -3.66702 59.7241 -7.98054 -4.9798 114.365 20.0131 16.6778 -4.34044e-006 6.11064e-006 1.97868e-006 7.73689 0.0539245 -0.882643 -8.69122e-007 -1.265e-007 -3.05937 8.02917 -4.95143 0.697667 -60.906 -6.14588 3.91454 -112.229 19.0819 -5.30708 -8.38821e-006 -1.19584e-006 2.89692e-006 -9.6234 0.0696223 1.04641 -1.67715e-006 3.1641e-006 3.0418 -8.02896 -4.95148 -0.697666 173.396 4.5957 3.43722 -180 7.01569e-015 179.022 178.54 13.0065 179.634 -7.77421e-007 -2.57607e-006 0.138277 -18.1714 68.9411 20.3288 8.12479 25.2352 -3.48023 -174.62 1.50878 -0.509705 4.54188e-006 -4.6773e-006 -0.957863 -0.773167 -12.6573 0.490177 -2.54714e-006 2.19838e-006 -0.197065 19.7611 71.7069 -22.9744 -8.13353 25.2328 3.48647 
54.2367 96.0656 9.61522 -0.339927 -2.54161 -0.49287 0.417318 -0.54954 0.0451899 0.821391 2.90948 0.0422698 0.821758 4.55446 0.0286281 -2.5414 15.043 -3.1119 1.61613 -1.53326 -3.66724 59.7138 -7.98522 -4.98243 114.369 20.0131 16.6887 -4.34044e-006 6.11064e-006 1.97868e-006 7.72736 0.0539257 -0.882033 -8.69122e-007 -1.265e-007 -3.05937 8.02917 -4.95143 0.697667 -60.9056 -6.14031 3.91125 -112.243 19.0733 -5.31953 -8.38822e-006 -1.19584e-006 2.89692e-006 -9.61785 0.0696235 1.04868 -1.67715e-006 3.1641e-006 3.04205 -8.02896 -4.95148 -0.697666 173.396 4.62353 3.43416 -180 7.01569e-015 179.022 178.542 13.0117 179.634 -7.77421e-007 -2.57607e-006 0.138262 -18.1708 68.943 20.3286 8.12479 25.2352 -3.48023 -174.622 1.53698 -0.506922 4.54188e-006 -4.6773e-006 -0.957893 -0.774065 -12.6614 0.489944 -2.54714e-006 2.19838e-006 -0.197016 19.7638 71.709 -22.9768 -8.13353 25.2328 3.48647 
